<?xml version="1.0" encoding="UTF-8" standalone="no"?>
<svg
   xmlns:dc="http://purl.org/dc/elements/1.1/"
   xmlns:cc="http://creativecommons.org/ns#"
   xmlns:rdf="http://www.w3.org/1999/02/22-rdf-syntax-ns#"
   xmlns:svg="http://www.w3.org/2000/svg"
   xmlns="http://www.w3.org/2000/svg"
   xmlns:sodipodi="http://sodipodi.sourceforge.net/DTD/sodipodi-0.dtd"
   xmlns:inkscape="http://www.inkscape.org/namespaces/inkscape"
   version="1.1"
   id="svg2"
   xml:space="preserve"
   width="1001.1867"
   height="666.66669"
   viewBox="0 0 1001.1867 666.66669"
   sodipodi:docname="bg.eps"><metadata
     id="metadata8"><rdf:RDF><cc:Work
         rdf:about=""><dc:format>image/svg+xml</dc:format><dc:type
           rdf:resource="http://purl.org/dc/dcmitype/StillImage" /></cc:Work></rdf:RDF></metadata><defs
     id="defs6" /><sodipodi:namedview
     pagecolor="#ffffff"
     bordercolor="#666666"
     borderopacity="1"
     objecttolerance="10"
     gridtolerance="10"
     guidetolerance="10"
     inkscape:pageopacity="0"
     inkscape:pageshadow="2"
     inkscape:window-width="640"
     inkscape:window-height="480"
     id="namedview4" /><g
     id="g10"
     inkscape:groupmode="layer"
     inkscape:label="ink_ext_XXXXXX"
     transform="matrix(1.3333333,0,0,-1.3333333,0,666.66667)"><g
       id="g12"
       transform="scale(0.1)"><path
         d="M 0.00390625,0 H 7500.0039 V 5000 H 0.00390625 Z"
         style="fill:#f0ebc4;fill-opacity:1;fill-rule:nonzero;stroke:none"
         id="path14" /><path
         d="m 7779.6,1886.43 c 0,0 -443.58,1607.75 -488.58,1912.81 -45,305.05 -45,305.05 -45,305.05 0,0 -6.42,-677.44 51.44,-856.22 57.85,-178.78 57.85,-178.78 57.85,-178.78 0,0 -302.14,462.85 -289.29,655.71 12.86,192.86 12.86,192.86 12.86,192.86 0,0 -128.57,-538.28 70.72,-780.21 199.28,-241.94 115.71,-165.91 115.71,-165.91 l -544.68,187.7 441.83,-527.3 -175.92,59.38 c 0,0 28.06,-141.9 227.34,-328.85 199.29,-186.96 565.72,-476.24 565.72,-476.24"
         style="fill:#e1d9af;fill-opacity:1;fill-rule:nonzero;stroke:none"
         id="path16" /><path
         d="m 7568.64,3125.06 -146.12,-22.22 209.99,-111.36 118.96,-248.69 -101.86,-15.54 146.29,-77.55 394.18,-824.37 -197.59,-674.05 -208.65,-21.66 -417.64,-43.3 c -104.9,233.09 -244.79,829.12 -351.44,1328.61 l 35.76,4.95 23.42,205.86 -84.65,-90.62 c -32.85,156.83 -61.59,299.35 -83.73,411.69 l 104.34,70.07 -119.32,5.6 c -21.28,108.74 -33.56,174.39 -33.56,174.39 l 251.09,468.84 381.21,-374.71 79.32,-165.94"
         style="fill:#2f7042;fill-opacity:1;fill-rule:nonzero;stroke:none"
         id="path18" /><path
         d="m 7568.64,3125.06 -146.12,-22.22 209.99,-111.36 118.96,-248.69 -101.86,-15.54 146.29,-77.55 394.18,-824.37 -197.59,-674.05 -208.65,-21.66 -675.73,2536.09 381.21,-374.71 79.32,-165.94"
         style="fill:#1b3e31;fill-opacity:1;fill-rule:nonzero;stroke:none"
         id="path20" /><path
         d="m 5178.43,720.73 c 313.19,428.72 340.73,835.25 340.73,835.25 -347.19,-123.5 -582.62,-300.69 -742.1,-489.11 59.74,410.53 -33.71,700.13 -33.71,700.13 -240.02,-211.16 -386.84,-428.66 -472.66,-635.45 -16.71,43.2 -34.37,84.53 -52.75,123.88 -2.7,6.01 -5.5,11.9 -8.29,17.8 -183.51,383.1 -428.41,578 -434.51,582.81 l -0.13,0.06 -0.02,0.01 0.01,-0.01 -0.06,0.03 C 3656.38,1401.85 3707.37,1045.86 3819.58,776.859 3466.49,1112.31 3108.69,1198.56 3108.69,1198.56 3323.5,-31.9297 4362.03,-101 4362.03,-101 c -16.51,50.4687 -34.2,99.05078 -52.92,145.8086 20.84,25.1016 40.82,50.2031 59.99,75.2934 14.32,-8.891 22.83,-13.571 23.94,-14.172 l 0.1,-0.098 v 0.008 h 0.01 l -0.01,0.012 c 0.8,6.886 1.51,13.789 2.2,20.679 1.15,11.02 2.14,21.93 3.13,32.84 17.14,23.418 33.66,46.828 49.43,70.199 -4,-79.5 0.92,-127.578 0.92,-127.578 52.3,27.559 101.91,56.219 149.24,85.707 C 5677.64,55.6211 6250.77,730.238 6250.77,730.238 5801.85,866.629 5446.8,825.391 5178.43,720.73"
         style="fill:#e1d9af;fill-opacity:1;fill-rule:nonzero;stroke:none"
         id="path22" /><path
         d="m 5284.92,5271.66 c 0,0 155.33,-5074.281 9.71,-5382.851 C 5149,-419.77 5149,-419.77 5149,-419.77 l 495.13,192.872 c 0,0 -41.57,2692.958 -67.96,3317.128 -26.39,624.18 242.71,2198.57 242.71,2198.57 0,0 -446.59,145.72 -533.96,-17.14"
         style="fill:#e1d9af;fill-opacity:1;fill-rule:nonzero;stroke:none"
         id="path24" /><path
         d="m 1012.99,5582.62 c 0,0 92.73,-5074.288 5.8,-5382.85 -86.935,-308.579 -86.935,-308.579 -86.935,-308.579 L 1227.42,84.0391 c 0,0 -24.81,2692.9809 -40.57,3317.1509 -15.75,624.18 144.89,2198.57 144.89,2198.57 0,0 -266.59,145.71 -318.75,-17.14"
         style="fill:#e1d9af;fill-opacity:1;fill-rule:nonzero;stroke:none"
         id="path26" /><path
         d="m 4144.02,4833.29 c 0,0 -50.1,-760.46 -1038.88,-1339.94 -247.19,-422.72 0,-3849.221 0,-3849.221 H 2095.22 c 0,0 513.87,3548.651 373.58,3846.911 -140.3,298.27 -369.87,456.87 -709.23,939.45 -170.69,242.72 15.74,875.94 15.74,875.94 0,0 466.4,-883.05 629.26,-1167.06 162.85,-284.01 355.72,-559.65 355.72,-559.65 0,0 218.26,150.39 439.13,354.71 220.87,204.33 340.87,165.9 383.72,353.24 42.86,187.33 -98.57,793.88 -98.57,793.88 l 266.52,266.45 81.38,-144.14 -81.38,-704.84 c 0,0 71.27,-62.48 166.34,192.13 95.06,254.62 150,553.02 150,553.02 l 76.59,-410.88"
         style="fill:#e1d9af;fill-opacity:1;fill-rule:nonzero;stroke:none"
         id="path28" /><path
         d="m 1635.09,4994.64 c 0,0 -296.82,-93.32 -364.84,-320.94 0,0 98.14,-66.7 282.92,-33.59 184.78,33.1 184.78,33.1 184.78,33.1 0,0 -58.3,-112.51 -25.72,-244.28 0,0 131.23,63.89 179.19,132.66 47.96,68.77 47.96,68.77 47.96,68.77 0,0 59.52,-147.78 104.76,-249.6 0,0 173.81,158.43 246.67,255.44 72.85,97.01 72.85,97.01 72.85,97.01 0,0 -60.21,-262 14.9,-422.42 0,0 152.25,118.29 199.39,199.64 47.14,81.36 47.14,81.36 47.14,81.36 0,0 -61.5,-26.91 66.7,-128.58 128.21,-101.66 97.55,-47 97.55,-47 0,0 108.43,72.33 104.94,145.38 -3.47,73.05 0,223.61 0,223.61 0,0 46.03,-120.41 160.56,-274.77 114.54,-154.36 131.68,-162.72 131.68,-162.72 0,0 221.87,222.65 228.79,346.93 3.16,56.82 4.88,87.67 5.82,104.41 1.1,19.88 1.1,19.88 1.1,19.88 0,0 148.93,-262.35 258.22,-308.5 109.28,-46.14 109.28,-46.14 109.28,-46.14 0,0 51.43,117 102.86,175.82 51.43,58.82 51.43,58.82 51.43,58.82 0,0 -46.54,-265.22 4.05,-388.14 0,0 179.16,53.85 288.45,143.85 109.29,90 225,168.07 334.29,440.82 109.28,272.75 109.28,272.75 109.28,272.75 l -3045,-173.57"
         style="fill:#256f33;fill-opacity:1;fill-rule:nonzero;stroke:none"
         id="path30" /><path
         d="m 4028.52,-272.348 c 0,0 -443.57,1607.748 -488.57,1912.808 -45,305.05 -45,305.05 -45,305.05 0,0 -6.42,-677.44 51.43,-856.22 57.86,-178.778 57.86,-178.778 57.86,-178.778 0,0 -302.14,462.848 -289.29,655.708 12.86,192.85 12.86,192.85 12.86,192.85 0,0 -128.57,-538.27 70.72,-780.199 199.28,-241.941 115.71,-165.91 115.71,-165.91 l -544.68,187.699 441.82,-527.301 -175.91,59.371 c 0,0 28.06,-141.89 227.34,-328.839 199.29,-186.9613 565.71,-476.239 565.71,-476.239"
         style="fill:#c9c484;fill-opacity:1;fill-rule:nonzero;stroke:none"
         id="path32" /><path
         d="m 1276.62,-133.82 c 0,0 372.55,1625.69 404.1,1932.41 31.57,306.74 31.57,306.74 31.57,306.74 0,0 36.17,-676.5 -13.78,-857.65 -49.95,-181.16 -49.95,-181.16 -49.95,-181.16 0,0 281.53,475.69 260.21,667.8 -21.31,192.1 -21.31,192.1 -21.31,192.1 0,0 152.08,-532.1 -36.39,-782.56 C 1662.6,893.41 1742.76,973.031 1742.76,973.031 l 535.91,211.439 -418.24,-546.2 173.13,67.05 c 0,0 -21.8,-143 -212.68,-338.511 C 1630,171.281 1276.62,-133.82 1276.62,-133.82"
         style="fill:#c9c484;fill-opacity:1;fill-rule:nonzero;stroke:none"
         id="path34" /><path
         d="m 3003.17,2002.14 c 0,0 877.5,376.07 1060.71,761.79 183.22,385.71 -86.78,356.78 385.72,626.78 472.5,270 1118.57,173.58 1350,684.65 231.42,511.07 199.28,924.64 199.28,924.64 l -149.17,73.71 c 0,0 36.15,4.97 -161.27,-448.48 -197.42,-453.44 -351.69,-694.52 -669.92,-781.3 -318.21,-86.79 -684.64,-183.22 -896.77,-356.79 -212.15,-173.57 -433.94,-829.28 -742.51,-916.07 -308.57,-86.78 -381.6,9.02 -381.6,9.02 l 5.53,-577.95"
         style="fill:#e1d9af;fill-opacity:1;fill-rule:nonzero;stroke:none"
         id="path36" /><path
         d="m 6602.64,1325.12 c -39.52,-13.97 -125.87,-44.51 -295.74,-104.67 -204.07,-72.28 -279.88,-190.69 -303.12,-238.54 -4.61,-9.488 2.9,-20.398 13.43,-19.699 66.77,4.43 267.86,21.34 384.35,69.659 111.42,46.21 190.16,208.46 218.41,274.82 4.72,11.09 -5.95,22.45 -17.33,18.43"
         style="fill:#e1d9af;fill-opacity:1;fill-rule:nonzero;stroke:none"
         id="path38" /><path
         d="m 6618.25,1657.87 c -39.52,-13.96 -125.88,-44.51 -295.75,-104.68 -204.06,-72.27 -279.88,-190.68 -303.12,-238.52 -4.61,-9.49 2.9,-20.41 13.44,-19.71 66.76,4.43 267.85,21.35 384.35,69.66 111.4,46.2 190.15,208.47 218.4,274.82 4.72,11.09 -5.95,22.45 -17.32,18.43"
         style="fill:#e1d9af;fill-opacity:1;fill-rule:nonzero;stroke:none"
         id="path40" /><path
         d="m 6577.67,2068.89 c -37.86,-17.97 -120.59,-57.29 -283.32,-134.68 -195.5,-92.98 -258.62,-218.59 -276.78,-268.58 -3.62,-9.92 4.99,-20 15.4,-18.21 65.94,11.31 264.22,48.92 375.07,109.02 106.04,57.47 167.55,226.99 188.77,295.91 3.56,11.52 -8.24,21.71 -19.14,16.54"
         style="fill:#e1d9af;fill-opacity:1;fill-rule:nonzero;stroke:none"
         id="path42" /><path
         d="m 6075.51,1948.03 c 57.94,33.42 230.94,137.25 314.14,231.97 79.57,90.58 78.53,270.87 74.56,342.85 -0.67,12.03 -15.27,17.52 -23.69,8.9 -29.3,-29.96 -93.31,-95.44 -219.17,-224.32 -151.2,-154.82 -166.9,-294.48 -166.62,-347.65 0.06,-10.55 11.62,-17.03 20.78,-11.75"
         style="fill:#e1d9af;fill-opacity:1;fill-rule:nonzero;stroke:none"
         id="path44" /><path
         d="m 6070.58,2146.35 -22.16,91.98 c 2.87,1.48 5.31,3.92 6.61,7.32 23.73,62.49 92,252.21 96.48,378.1 4.28,120.42 -110.69,259.35 -159.35,312.57 -8.14,8.89 -22.92,3.92 -24,-8.08 -3.72,-41.7 -11.84,-132.85 -27.74,-312.16 -19.09,-215.41 57.18,-333.46 91.07,-374.45 2.98,-3.6 7.2,-5.06 11.3,-4.81 l -45.26,-1412.621 73.05,1322.151"
         style="fill:#e1d9af;fill-opacity:1;fill-rule:nonzero;stroke:none"
         id="path46" /><path
         d="m 6010.38,979.32 c -19.33,49.53 -85.36,173.59 -282.96,261.85 -164.48,73.47 -248.12,110.78 -286.38,127.84 -11.01,4.92 -22.57,-5.56 -18.75,-16.99 22.81,-68.39 88.25,-236.39 195.6,-291.3 112.22,-57.42 311.32,-90.251 377.51,-99.982 10.45,-1.539 18.81,8.742 14.98,18.582"
         style="fill:#e1d9af;fill-opacity:1;fill-rule:nonzero;stroke:none"
         id="path48" /><path
         d="m 5629.5,1393.08 c 112.23,-57.43 311.32,-90.26 377.51,-99.98 10.45,-1.55 18.81,8.74 14.98,18.57 -19.33,49.53 -85.36,173.59 -282.96,261.86 -164.48,73.46 -248.11,110.78 -286.38,127.84 -11.01,4.91 -22.56,-5.56 -18.75,-17 22.82,-68.38 88.26,-236.38 195.6,-291.29"
         style="fill:#e1d9af;fill-opacity:1;fill-rule:nonzero;stroke:none"
         id="path50" /><path
         d="m 5645.12,1780.65 c 105.68,-68.71 300.28,-121.96 365.11,-138.47 10.24,-2.61 19.61,6.75 16.82,16.92 -14.08,51.27 -66.91,181.5 -254.3,289.72 -155.98,90.09 -235.28,135.84 -271.57,156.77 -10.45,6.02 -23.03,-3.21 -20.41,-14.97 15.6,-70.39 63.28,-244.25 164.35,-309.97"
         style="fill:#e1d9af;fill-opacity:1;fill-rule:nonzero;stroke:none"
         id="path52" /><path
         d="m 6013.57,1959.65 c 10.15,-6.97 24.19,-0.52 25.25,11.74 5.31,61.76 0.16,225.54 -161.05,419.5 -134.19,161.44 -202.43,243.49 -233.67,281.02 -8.99,10.8 -26.48,5.78 -28.37,-8.15 -11.38,-83.29 -29.49,-292.73 54.49,-405.39 87.8,-117.78 279.13,-254.5 343.35,-298.72"
         style="fill:#e1d9af;fill-opacity:1;fill-rule:nonzero;stroke:none"
         id="path54" /><path
         d="m 1826.64,1445.04 c -41.83,-2.53 -133.27,-8.09 -313.14,-19.08 -216.09,-13.22 -321.6,-106.15 -357.14,-145.73 -7.05,-7.85 -2.84,-20.41 7.49,-22.63 65.4,-14.15 263.35,-53.33 388.65,-39.02 119.84,13.71 240.27,147.96 285.72,203.96 7.59,9.36 0.46,23.22 -11.58,22.5"
         style="fill:#e1d9af;fill-opacity:1;fill-rule:nonzero;stroke:none"
         id="path56" /><path
         d="m 1933.38,1760.59 c -41.83,-2.53 -133.28,-8.08 -313.14,-19.08 -216.09,-13.21 -321.61,-106.14 -357.14,-145.72 -7.05,-7.85 -2.84,-20.41 7.48,-22.65 65.4,-14.14 263.36,-53.33 388.66,-39 119.83,13.7 240.26,147.96 285.71,203.96 7.6,9.35 0.47,23.22 -11.57,22.49"
         style="fill:#e1d9af;fill-opacity:1;fill-rule:nonzero;stroke:none"
         id="path58" /><path
         d="m 2007.7,2166.87 c -41.35,-6.85 -131.72,-21.82 -309.48,-51.35 -213.55,-35.49 -308.87,-138.82 -340.11,-181.86 -6.2,-8.54 -0.71,-20.6 9.79,-21.76 66.51,-7.3 267.46,-25.82 390.6,1.38 117.77,26.02 223.64,172.01 263.04,232.41 6.58,10.09 -1.94,23.15 -13.84,21.18"
         style="fill:#e1d9af;fill-opacity:1;fill-rule:nonzero;stroke:none"
         id="path60" /><path
         d="m 1491.66,2189.13 c 64.92,16.15 259.85,68.27 365.93,136.38 101.46,65.12 150.17,238.71 166.2,309.01 2.67,11.74 -9.85,21.04 -20.33,15.08 -36.42,-20.72 -116,-66.02 -272.51,-155.2 -188.02,-107.13 -241.62,-237.06 -256.01,-288.24 -2.85,-10.16 6.47,-19.58 16.72,-17.03"
         style="fill:#e1d9af;fill-opacity:1;fill-rule:nonzero;stroke:none"
         id="path62" /><path
         d="m 1541.62,2381.12 4.04,94.53 c 3.17,0.64 6.19,2.3 8.38,5.22 40.04,53.53 157.97,217.06 196.98,336.85 37.32,114.56 -34.9,279.81 -67,344.39 -5.37,10.79 -20.95,10.08 -25.29,-1.16 -15.08,-39.06 -48.01,-124.44 -112.73,-292.41 -77.75,-201.8 -36.97,-336.31 -15.7,-385.04 1.87,-4.29 5.53,-6.85 9.54,-7.75 l -432.97,-1345.39 434.75,1250.76"
         style="fill:#e1d9af;fill-opacity:1;fill-rule:nonzero;stroke:none"
         id="path64" /><path
         d="m 1161.99,1275.92 c -4.92,52.94 -34.19,190.4 -199.799,329.72 -137.851,115.97 -207.953,174.89 -240.031,201.84 -9.234,7.76 -23.226,0.88 -22.711,-11.16 3.078,-72.03 19.664,-251.56 107.707,-333.94 92.051,-86.13 274.374,-172.59 335.314,-200.18 9.62,-4.37 20.5,3.21 19.52,13.72"
         style="fill:#e1d9af;fill-opacity:1;fill-rule:nonzero;stroke:none"
         id="path66" /><path
         d="m 909.949,1778.65 c 92.051,-86.13 274.361,-172.59 335.311,-200.18 9.62,-4.36 20.49,3.22 19.52,13.72 -4.91,52.95 -34.19,190.41 -199.8,329.72 -137.847,115.97 -207.949,174.9 -240.027,201.85 -9.234,7.75 -23.226,0.87 -22.715,-11.17 3.082,-72.03 19.668,-251.56 107.711,-333.94"
         style="fill:#e1d9af;fill-opacity:1;fill-rule:nonzero;stroke:none"
         id="path68" /><path
         d="m 1031.82,2146.9 c 82.64,-95.18 255.02,-200.02 312.78,-233.77 9.12,-5.33 20.71,1.09 20.84,11.64 0.59,53.16 -14.29,192.91 -164.57,348.59 -125.1,129.6 -188.72,195.45 -217.835,225.57 -8.379,8.67 -23.008,3.27 -23.746,-8.76 -4.398,-71.96 -6.504,-252.23 72.531,-343.27"
         style="fill:#e1d9af;fill-opacity:1;fill-rule:nonzero;stroke:none"
         id="path70" /><path
         d="m 1435.34,2217.38 c 7.83,-9.5 23.11,-7.17 27.5,4.33 22.14,57.9 62.34,216.75 -39.15,447.64 -84.47,192.18 -127.46,289.86 -147.14,334.55 -5.66,12.86 -23.85,12.85 -29.51,-0.01 -33.9,-76.93 -109.06,-273.26 -59.39,-404.7 51.93,-137.43 198.15,-321.6 247.69,-381.81"
         style="fill:#e1d9af;fill-opacity:1;fill-rule:nonzero;stroke:none"
         id="path72" /><path
         d="m 6470.07,2155.66 211.28,110.21 -57.91,-180.11 281.34,-269.95 191.57,80.48 -56.84,-151.94 327.19,-346.25 172.18,92.19 -34.34,-183.65 561.63,-639.128 36.39,447.348 45.1,555 c 0,0 -818.57,706.12 -1651.47,990.89 -32.18,11 -64.33,21.39 -96.55,31.09 L 5860.08,2528 6470.07,2155.66"
         style="fill:#b1c341;fill-opacity:1;fill-rule:nonzero;stroke:none"
         id="path74" /><path
         d="m 6496.19,2660.75 c 716.65,-408.42 1434.6,-1319.7 1606.37,-1545.89 l 45.1,555 c 0,0 -818.57,706.12 -1651.47,990.89"
         style="fill:#c8d745;fill-opacity:1;fill-rule:nonzero;stroke:none"
         id="path76" /><path
         d="m 3145.81,5206.79 c 0,0 -296.82,-93.32 -364.84,-320.95 0,0 98.13,-66.7 282.91,-33.59 184.78,33.11 184.78,33.11 184.78,33.11 0,0 -58.3,-112.51 -25.71,-244.29 0,0 131.23,63.89 179.19,132.66 47.95,68.77 47.95,68.77 47.95,68.77 0,0 59.52,-147.77 104.76,-249.6 0,0 173.81,158.43 246.67,255.44 72.85,97.02 72.85,97.02 72.85,97.02 0,0 -60.2,-262 14.9,-422.43 0,0 152.25,118.29 199.39,199.64 47.15,81.36 47.15,81.36 47.15,81.36 0,0 -61.51,-26.91 66.7,-128.57 128.2,-101.67 97.55,-47 97.55,-47 0,0 108.42,72.32 104.94,145.37 -3.48,73.06 0,223.61 0,223.61 0,0 46.02,-120.41 160.55,-274.77 114.54,-154.36 131.68,-162.71 131.68,-162.71 0,0 221.87,222.64 228.79,346.93 3.17,56.82 4.89,87.66 5.82,104.41 1.11,19.87 1.11,19.87 1.11,19.87 0,0 148.92,-262.35 258.21,-308.5 109.29,-46.14 109.29,-46.14 109.29,-46.14 0,0 51.42,117 102.86,175.82 51.42,58.82 51.42,58.82 51.42,58.82 0,0 -46.54,-265.21 4.06,-388.14 0,0 179.16,53.86 288.44,143.86 109.29,90 225,168.06 334.29,440.81 109.29,272.76 109.29,272.76 109.29,272.76 l -3045,-173.57"
         style="fill:#348538;fill-opacity:1;fill-rule:nonzero;stroke:none"
         id="path78" /><path
         d="m 5498.01,4428.24 c 0,0 50.08,-678.49 1038.87,-1195.51 247.2,-377.16 0,-3434.351 0,-3434.351 H 7546.8 c 0,0 -513.87,3166.181 -373.57,3432.291 140.29,266.12 130.65,735.27 709.23,838.19 578.56,102.93 -250.71,224 -250.71,224 0,0 -231.44,-230.35 -394.29,-483.75 -162.86,-253.4 -355.71,-499.32 -355.71,-499.32 0,0 -218.28,134.18 -439.15,316.48 -220.85,182.3 -340.85,148.02 -383.72,315.16 -42.86,167.14 98.58,708.32 98.58,708.32 l -266.52,237.73 -81.38,-128.61 81.38,-628.87 c 0,0 -71.27,-55.75 -166.34,171.43 -95.07,227.18 -150,493.41 -150,493.41 l -76.59,-366.6"
         style="fill:#18322f;fill-opacity:1;fill-rule:nonzero;stroke:none"
         id="path80" /><path
         d="m 998.016,4964.16 c 0,0 -50.09,-678.5 -1038.8793,-1195.51 -247.1877,-377.16 0,-3434.349 0,-3434.349 H -1050.78 c 0,0 513.874,3166.169 373.577,3432.289 -140.301,266.12 -130.656,735.27 -709.227,838.19 -578.57,102.93 250.71,223.99 250.71,223.99 0,0 231.431,-230.34 394.286,-483.74 162.856,-253.4 355.719,-499.33 355.719,-499.33 0,0 218.266,134.19 439.1291,316.49 220.8709,182.3 340.8709,148.02 383.7269,315.16 42.855,167.14 -98.575,708.32 -98.575,708.32 L 605.09,5423.4 686.469,5294.8 605.09,4665.92 c 0,0 71.269,-55.75 166.332,171.43 95.07,227.17 150,493.41 150,493.41 l 76.594,-366.6"
         style="fill:#18322f;fill-opacity:1;fill-rule:nonzero;stroke:none"
         id="path82" /><path
         d="M 6370.21,1130.24 C 6285.96,1018.14 6224.32,884.961 6112.81,799.93 5932.09,662.129 5680.47,690.359 5456.35,652.652 5325.42,630.621 5199.98,584.359 5075.43,538.34 4960.44,495.859 4845.45,453.371 4730.46,410.891 4579.54,355.141 4426.72,298.398 4295.01,206.012 c -198.94,-139.5628 -340.87,-362.903 -367.03,-604.5 1142.83,191.527 2310.34,235.218 3464.29,129.66 150.56,-13.774 325.2,-21.422 427.2,90.18 98.66,107.9488 80.52,274.9175 56.2,419.128 -48.87,289.692 -97.72,579.379 -146.58,869.07 -29.75,176.35 -8.34,503.8 -225.48,555.47 -178.56,42.5 -447.14,-82.19 -606.82,-149.83 -200.87,-85.09 -395.97,-206.23 -526.58,-384.95"
         style="fill:#449f45;fill-opacity:1;fill-rule:nonzero;stroke:none"
         id="path84" /><path
         d="m 7753.88,-350.711 c 0,0 -443.57,1607.751 -488.57,1912.801 -45,305.05 -45,305.05 -45,305.05 0,0 -6.43,-677.43 51.44,-856.21 57.85,-178.789 57.85,-178.789 57.85,-178.789 0,0 -302.14,462.859 -289.29,655.719 12.86,192.85 12.86,192.85 12.86,192.85 0,0 -128.57,-538.27 70.71,-780.198 199.29,-241.942 115.72,-165.91 115.72,-165.91 L 6694.92,922.301 7136.75,395 6960.83,454.371 c 0,0 28.05,-141.891 227.34,-328.84 199.29,-186.9607 565.71,-476.242 565.71,-476.242"
         style="fill:#348538;fill-opacity:1;fill-rule:nonzero;stroke:none"
         id="path86" /><path
         d="m 4981.83,-1061.69 c 0,0 -299.19,1640.772 -316.94,1948.6 -17.76,307.85 -17.76,307.85 -17.76,307.85 0,0 -66.51,-674.201 -24.74,-857.408 41.77,-183.211 41.77,-183.211 41.77,-183.211 0,0 -259.89,487.839 -229.97,678.8 29.92,190.959 29.92,190.959 29.92,190.959 0,0 -175.82,-524.752 1.21,-783.408 177.04,-258.66 100.54,-175.5232 100.54,-175.5232 l -525.88,235.2812 393.3,-564.418 -169.95,74.758 c 0,0 15.36,-143.828 197.27,-347.731 181.92,-203.898 521.23,-524.549 521.23,-524.549"
         style="fill:#246d32;fill-opacity:1;fill-rule:nonzero;stroke:none"
         id="path88" /><path
         d="m 6349.92,-177.789 c 0,0 -34.29,1020 347.14,1371.429 0,0 -375.95,-252.808 -470.83,-739.269 0,0 7.17,290.758 -91,461.438 0,0 -71.95,-211.469 -47.94,-276.098 0,0 -202.67,372.879 -169.31,465.539 0,0 -51.42,-153.762 -32.6,-465.539 18.83,-311.781 18.83,-311.781 18.83,-311.781 0,0 -210.05,203.539 -319.31,448.922 -109.27,245.358 -109.27,245.358 -109.27,245.358 0,0 42.31,-628.37 90,-757.761 47.7,-129.379 147.45,-568.219 147.45,-568.219 l 653.98,104.93"
         style="fill:#b1c341;fill-opacity:1;fill-rule:nonzero;stroke:none"
         id="path90" /><path
         d="m 5701.86,885.91 221.94,115.47 -289.69,4.68 c 0,0 -45.82,110.46 -48.31,183.01 -2.48,72.55 -2.48,72.55 -2.48,72.55 l 310.35,-6.49 -298.1,162 c 0,0 58.28,187.55 279.82,270.84 l 233.03,-352.55 -82.59,415.03 c 0,0 202.93,78.01 374.65,53.06 l -21.66,-372.3 151.49,356.71 c 0,0 269.38,-12.94 397.35,-211.84 l -155.46,-168.95 196.76,-19.47 c 0,0 -77.23,-177.72 -150.73,-254.61 l -190.85,44.93 92.88,-139.88 c 0,0 -75.67,-59.721 -181.95,-104.881 -106.29,-45.16 -92.29,-45.449 -92.29,-45.449 l -55.05,58.96 -6.34,-76.23 c 0,0 -298.91,-191.238 -682.77,15.41"
         style="fill:#224737;fill-opacity:1;fill-rule:nonzero;stroke:none"
         id="path92" /><path
         d="m 5595.99,1142.1 681.45,-126.46 -562.89,574.82 -7.15,-7 540.76,-552.21 -650.35,120.68 -1.82,-9.83"
         style="fill:#449f45;fill-opacity:1;fill-rule:nonzero;stroke:none"
         id="path94" /><path
         d="m 6151.3,1786.28 108.27,-775.87 499.27,693.29 -8.11,5.84 -484.7,-673.05 -104.83,751.17 -9.9,-1.38"
         style="fill:#449f45;fill-opacity:1;fill-rule:nonzero;stroke:none"
         id="path96" /><path
         d="m 6612.98,1778.72 -353.91,-751.45 -439.39,-192.899 4.02,-9.152 442.83,194.401 355.5,754.84 -9.05,4.26"
         style="fill:#449f45;fill-opacity:1;fill-rule:nonzero;stroke:none"
         id="path98" /><path
         d="m 6327.94,848.039 -60.41,177.021 -9.46,-3.23 60.41,-177.021"
         style="fill:#449f45;fill-opacity:1;fill-rule:nonzero;stroke:none"
         id="path100" /><path
         d="m 2919.6,-328.91 c 0,0 -34.29,1020 347.14,1371.43 0,0 -375.94,-252.809 -470.83,-739.258 0,0 7.17,290.738 -91,461.429 0,0 -71.95,-211.48 -47.94,-276.101 0,0 -202.67,372.879 -169.31,465.551 0,0 -51.42,-153.77 -32.6,-465.551 18.82,-311.781 18.82,-311.781 18.82,-311.781 0,0 -210.04,203.543 -319.3,448.91 -109.27,245.371 -109.27,245.371 -109.27,245.371 0,0 42.31,-628.379 90,-757.758 47.7,-129.3828 147.46,-568.211 147.46,-568.211 l 653.97,104.918"
         style="fill:#b1c341;fill-opacity:1;fill-rule:nonzero;stroke:none"
         id="path102" /><path
         d="M 757.578,3301.7 622.32,3361.3 739.859,3154.7 706.922,2881 612.609,2922.5 694.508,2778.6 585.18,1871.41 56.957,1408.4 -130.77,1502 -506.512,1689.4 c 36.442,253 237.981,831.1 415.7932,1309.9 l 32.836,-15 130.1562,161.2 -120.0429,-31.1 c 56.36716,150 108.5273,285.7 150.0785,392.4 l 125.648,3.2 -97.715,68.7 c 40.348,103.2 65.176,165.2 65.176,165.2 L 658.766,4005 779.605,3484.3 757.578,3301.7"
         style="fill:#2f7042;fill-opacity:1;fill-rule:nonzero;stroke:none"
         id="path104" /><path
         d="M 757.578,3301.7 622.32,3361.3 739.859,3154.7 706.922,2881 612.609,2922.5 694.508,2778.6 585.18,1871.41 56.957,1408.4 -130.77,1502 658.766,4005 779.605,3484.3 757.578,3301.7"
         style="fill:#1b3e31;fill-opacity:1;fill-rule:nonzero;stroke:none"
         id="path106" /><path
         d="m 1503.19,2576.1 -215.6,101.5 65.2,-177.6 -270.11,-281.2 -194.696,72.6 63,-149.5 -312.796,-359.3 -175.801,85.1 41.797,-182.1 -535.0981,-661.5 -54.6015,445.5 -67.6994,552.7 c 0,0 789.102,738.9 1609.695,1057.4 31.71,12.3 63.4,24 95.2,35 l 545.8,-141.7 -594.29,-396.9"
         style="fill:#b1c341;fill-opacity:1;fill-rule:nonzero;stroke:none"
         id="path108" /><path
         d="M 1456.48,3079.7 C 757.082,2642.4 76.8828,1702.6 -85.5156,1469.6 l -67.6994,552.7 c 0,0 789.102,738.9 1609.695,1057.4"
         style="fill:#c8d745;fill-opacity:1;fill-rule:nonzero;stroke:none"
         id="path110" /><path
         d="M 93.0547,199.832 C 86.625,225.551 183.824,1055.12 285.434,1438.16 l -366.4262,-765 c 0,0 -102.8598,739.29 -179.9998,919.29 -77.145,180 -77.145,180 -77.145,180 L -436.73,901.09 -479.566,223.16 93.0547,199.832"
         style="fill:#348538;fill-opacity:1;fill-rule:nonzero;stroke:none"
         id="path112" /><path
         d="m 1134.63,-157.629 c 0,0 -110.38,1072.711 1108.96,1506.459 0,0 -64.48,-956.111 -1108.96,-1506.459"
         style="fill:#224737;fill-opacity:1;fill-rule:nonzero;stroke:none"
         id="path114" /><path
         d="M 2239.56,1351.79 1130.6,-154.66 l 8.05,-5.93 1108.96,1506.45"
         style="fill:#0d2119;fill-opacity:1;fill-rule:nonzero;stroke:none"
         id="path116" /><path
         d="m 1765.95,1000.03 -83.94,-414.241 338.48,193.531 -4.97,8.68 -319.33,-182.578 79.56,392.617 -9.8,1.991"
         style="fill:#0d2119;fill-opacity:1;fill-rule:nonzero;stroke:none"
         id="path118" /><path
         d="m 1478.81,600.512 -83.93,-414.242 338.47,193.539 -4.96,8.683 -319.33,-182.594 79.55,392.633 -9.8,1.981"
         style="fill:#0d2119;fill-opacity:1;fill-rule:nonzero;stroke:none"
         id="path120" /><path
         d="m 1079.22,-132.199 c -0.72,-7.153 -1.45,-14.301 -2.28,-21.449 l -0.1,0.109 C 1070.72,-150.23 850.039,-28.9102 656.086,234.879 442.551,525.711 261.543,989.672 436.438,1659.82 l 0.207,-0.11 c 6.316,-4.97 260.054,-206.91 450.179,-603.83 2.899,-6.11 5.801,-12.23 8.598,-18.45 C 1030.63,747.949 1130.3,357.859 1079.22,-132.199"
         style="fill:#3d913a;fill-opacity:1;fill-rule:nonzero;stroke:none"
         id="path122" /><path
         d="M 1089.55,0 H 904.188 c -70.465,62.1406 -151.012,144.52 -227.481,248.551 22.063,87.871 44.027,175.73 66.203,263.699 3.313,13.672 6.836,27.352 10.254,41.129 14.609,58.023 29.117,115.941 44.555,173.75 6.215,23.109 12.64,46.312 19.269,69.312 19.789,69.528 41.653,138.52 67.039,206.279 2.688,7.15 6.528,19.58 11.395,34.71 C 1006.07,800.531 1092.92,496.25 1092.82,124.949 1092.81,84.1016 1091.75,42.4688 1089.55,0"
         style="fill:#2b7634;fill-opacity:1;fill-rule:nonzero;stroke:none"
         id="path124" /><path
         d="m 1080.41,-150.031 -0.12,0.113 -3.45,-3.621 4.71,1.668 -155.773,441.312 -146.636,415.051 -17.707,50.25 -320.481,907.618 -0.855,0.89 -7.219,-6.91 0.109,-0.12 3.61,3.46 -4.715,-1.67 L 752,751.41 769.711,701.16 916.348,286.109 1072.52,-156.32 l 0.97,-0.942 6.92,7.231"
         style="fill:#1e5328;fill-opacity:1;fill-rule:nonzero;stroke:none"
         id="path126" /><path
         d="m 457.207,1052.42 303.633,-310.729 31.004,399.159 -9.969,0.78 -29.301,-377.169 -288.215,294.949 -7.152,-6.99"
         style="fill:#1e5328;fill-opacity:1;fill-rule:nonzero;stroke:none"
         id="path128" /><path
         d="m 631.07,577.398 303.629,-310.726 31.004,399.16 -9.969,0.777 -29.296,-377.168 -288.215,294.95 -7.153,-6.993"
         style="fill:#1e5328;fill-opacity:1;fill-rule:nonzero;stroke:none"
         id="path130" /><path
         d="m 968.289,-242.75 c 0,0 -500.172,955.359 471.501,1810.22 0,0 294.55,-911.888 -471.501,-1810.22"
         style="fill:#449f45;fill-opacity:1;fill-rule:nonzero;stroke:none"
         id="path132" /><path
         d="m 1434.95,1568.73 -471.501,-1810.218 9.68,-2.52 471.501,1810.218"
         style="fill:#1e5328;fill-opacity:1;fill-rule:nonzero;stroke:none"
         id="path134" /><path
         d="m 1125.48,1066.45 75.61,-415.841 242.61,305.223 -7.83,6.227 -228.89,-287.957 -71.66,394.138 -9.84,-1.79"
         style="fill:#1e5328;fill-opacity:1;fill-rule:nonzero;stroke:none"
         id="path136" /><path
         d="m 1006.91,588.961 75.61,-415.84 242.61,305.219 -7.83,6.23 -228.89,-287.961 -71.66,394.141 -9.84,-1.789"
         style="fill:#1e5328;fill-opacity:1;fill-rule:nonzero;stroke:none"
         id="path138" /><path
         d="m 1214.26,-58.6406 c 0,0 549.04,928.1406 1787.34,551.9296 0,0 -620.29,-730.43 -1787.34,-551.9296"
         style="fill:#51bc50;fill-opacity:1;fill-rule:nonzero;stroke:none"
         id="path140" /><path
         d="m 3000.13,498.07 -1787.34,-551.9411 2.95,-9.5469 1787.34,551.93"
         style="fill:#1e5328;fill-opacity:1;fill-rule:nonzero;stroke:none"
         id="path142" /><path
         d="m 2410.17,496.82 -313.77,-283.172 387.22,-45.628 1.17,9.929 -365.32,43.051 297.4,268.391 -6.7,7.429"
         style="fill:#1e5328;fill-opacity:1;fill-rule:nonzero;stroke:none"
         id="path144" /><path
         d="M 1941.77,346.301 1628,63.1289 l 387.21,-45.6172 1.17,9.9297 -365.31,43.0391 297.4,268.3985 -6.7,7.422"
         style="fill:#1e5328;fill-opacity:1;fill-rule:nonzero;stroke:none"
         id="path146" /><path
         d="m 1044.7,-367.941 c 0,0 -1075.993,71.55 -1298.555,1346.461 0,0 931.656,-224.309 1298.555,-1346.461"
         style="fill:#51bc50;fill-opacity:1;fill-rule:nonzero;stroke:none"
         id="path148" /><path
         d="M -257.453,975.039 1041.11,-371.41 l 7.19,6.941 -1298.558,1346.457"
         style="fill:#b1c341;fill-opacity:1;fill-rule:nonzero;stroke:none"
         id="path150" /><path
         d="M 9.67578,449.031 403.906,296.641 270.035,662.84 260.645,659.41 386.941,313.922 13.2813,458.359 9.67578,449.031"
         style="fill:#b1c341;fill-opacity:1;fill-rule:nonzero;stroke:none"
         id="path152" /><path
         d="M 355.227,98.8086 749.457,-53.5703 615.586,312.629 606.195,309.191 732.492,-36.2891 358.832,108.141 355.227,98.8086"
         style="fill:#b1c341;fill-opacity:1;fill-rule:nonzero;stroke:none"
         id="path154" /><path
         d="M 153.129,-53.1484 341.73,27.9688 337.777,37.1484 149.18,-43.9609"
         style="fill:#18322f;fill-opacity:1;fill-rule:nonzero;stroke:none"
         id="path156" /><path
         d="m 329.641,17.5898 c -10.883,1.1602 -16.602,13.629 -10.203,22.5 32.246,44.6915 130.714,152.0392 351.878,189.4492 184.09,31.141 277.68,46.93 320.504,54.152 12.32,2.071 21.19,-11.421 14.39,-21.902 C 965.559,199.09 856.277,47.5117 734.332,20.2109 606.828,-8.35156 398.57,10.2109 329.641,17.5898"
         style="fill:#18322f;fill-opacity:1;fill-rule:nonzero;stroke:none"
         id="path158" /><path
         d="m 979.723,266.031 c -0.004,-0.011 -0.899,-0.57 -2.739,-1.679 -27.636,-16.661 -263,-153.743 -641.89,-226.8832 -2.711,-0.5274 -4.485,-3.1485 -3.961,-5.8594 0.523,-2.7071 3.144,-4.4805 5.855,-3.9571 C 742.773,106 984.66,257.32 985.027,257.551 c 2.34,1.461 3.051,4.551 1.586,6.89 -1.465,2.34 -4.55,3.047 -6.89,1.59"
         style="fill:#50a579;fill-opacity:1;fill-rule:nonzero;stroke:none"
         id="path160" /><path
         d="m 232.934,297.832 145.433,76.047 -4.633,8.859 -145.433,-76.047"
         style="fill:#18322f;fill-opacity:1;fill-rule:nonzero;stroke:none"
         id="path162" /><path
         d="m 365.934,363.332 c -10.879,1.16 -16.602,13.637 -10.2,22.508 32.246,44.68 130.719,152.039 351.875,189.449 184.09,31.141 277.68,46.93 320.501,54.141 12.33,2.082 21.19,-11.41 14.4,-21.891 C 1001.86,544.84 892.574,393.262 770.629,365.949 643.121,337.391 434.871,355.969 365.934,363.332"
         style="fill:#18322f;fill-opacity:1;fill-rule:nonzero;stroke:none"
         id="path164" /><path
         d="m 1016.02,611.781 c -0.01,0 -0.9,-0.562 -2.74,-1.672 -27.639,-16.668 -263.003,-153.75 -641.885,-226.89 -2.711,-0.52 -4.489,-3.149 -3.965,-5.86 0.523,-2.711 3.148,-4.48 5.859,-3.961 405.777,78.344 647.661,229.684 648.031,229.903 2.34,1.469 3.05,4.551 1.59,6.89 -1.47,2.34 -4.55,3.051 -6.89,1.59"
         style="fill:#50a579;fill-opacity:1;fill-rule:nonzero;stroke:none"
         id="path166" /><path
         d="m 309.523,613.102 168.36,79.628 -4.278,9.04 -168.359,-79.629"
         style="fill:#18322f;fill-opacity:1;fill-rule:nonzero;stroke:none"
         id="path168" /><path
         d="m 467.238,681.301 c -10.945,0.031 -17.929,11.847 -12.48,21.34 27.441,47.769 114.258,164.73 330.355,224.8 179.875,50 271.327,75.379 313.167,86.979 12.05,3.34 22.26,-9.16 16.6,-20.279 C 1080.93,927.582 987.945,765.512 869.484,725.742 745.621,684.16 536.559,681.102 467.238,681.301"
         style="fill:#18322f;fill-opacity:1;fill-rule:nonzero;stroke:none"
         id="path170" /><path
         d="m 1088.08,995.609 c 0,0 -0.83,-0.648 -2.55,-1.937 -25.76,-19.442 -245.655,-180.113 -614.928,-292.024 -2.641,-0.796 -4.133,-3.589 -3.332,-6.226 0.8,-2.652 3.589,-4.141 6.234,-3.34 395.48,119.867 620.386,295.387 620.736,295.648 2.17,1.7 2.56,4.84 0.86,7.02 -1.7,2.172 -4.84,2.559 -7.02,0.859"
         style="fill:#50a579;fill-opacity:1;fill-rule:nonzero;stroke:none"
         id="path172" /><path
         d="m 371.305,880.879 121.324,132.411 -7.371,6.76 -121.324,-132.409"
         style="fill:#18322f;fill-opacity:1;fill-rule:nonzero;stroke:none"
         id="path174" /><path
         d="m 486.492,998.781 c -10.285,-3.761 -20.929,4.909 -19.105,15.689 9.187,54.32 50.09,194.07 232,325.15 151.422,109.11 228.418,164.54 263.652,189.9 10.141,7.3 24.063,-0.91 22.598,-13.3 -8.77,-74.18 -39.832,-258.38 -137.184,-336.66 -101.785,-81.84 -296.859,-157 -361.961,-180.779"
         style="fill:#18322f;fill-opacity:1;fill-rule:nonzero;stroke:none"
         id="path176" /><path
         d="m 959.992,1508.34 c 0,-0.01 -0.554,-0.9 -1.715,-2.71 -17.433,-27.14 -168.035,-253.91 -475.679,-486.6 -2.203,-1.67 -2.637,-4.8 -0.973,-7.01 1.664,-2.2 4.801,-2.63 7.004,-0.97 329.48,249.22 479.637,491.66 479.867,492.02 1.453,2.35 0.731,5.43 -1.617,6.88 -2.348,1.46 -5.43,0.73 -6.887,-1.61"
         style="fill:#50a579;fill-opacity:1;fill-rule:nonzero;stroke:none"
         id="path178" /><path
         d="m 425.277,1306.33 7.582,-118.82 -309.961,-1335.709 9.743,-2.262 310.293,1337.151 -7.676,120.28 -9.981,-0.64"
         style="fill:#18322f;fill-opacity:1;fill-rule:nonzero;stroke:none"
         id="path180" /><path
         d="m 439.703,1291.23 c -5.586,-9.39 -19.324,-9.41 -24.738,0.09 -27.281,47.87 -84.102,181.95 -26.238,398.42 48.175,180.17 72.703,271.75 83.929,313.65 3.235,12.06 19.211,14.51 25.93,3.98 40.187,-63 132.789,-225.28 106.957,-347.42 -26.996,-127.69 -130.477,-309.16 -165.84,-368.72"
         style="fill:#18322f;fill-opacity:1;fill-rule:nonzero;stroke:none"
         id="path182" /><path
         d="m 483.719,1985.06 c 0,-0.01 0.422,-3.22 1.074,-9.59 1.953,-19.12 5.879,-66.19 5.879,-135.57 0.004,-120.78 -11.899,-309.17 -66.809,-535.44 -0.648,-2.68 0.996,-5.39 3.68,-6.04 2.684,-0.65 5.387,1 6.039,3.68 55.129,227.18 67.09,416.36 67.09,537.8 0,93.01 -7.016,146.28 -7.039,146.47 -0.363,2.73 -2.875,4.66 -5.613,4.3 -2.739,-0.36 -4.665,-2.87 -4.301,-5.61"
         style="fill:#50a579;fill-opacity:1;fill-rule:nonzero;stroke:none"
         id="path184" /><path
         d="M 148.246,-72.0508 -3.31641,68.1406 -10.1055,60.8008 141.457,-79.3906"
         style="fill:#18322f;fill-opacity:1;fill-rule:nonzero;stroke:none"
         id="path186" /><path
         d="M -3.6875,46.6602 C 6.70313,43.2305 17.0664,52.2422 14.9102,62.9492 4.01172,116.949 -41.2852,255.34 -227.238,380.629 c -154.789,104.293 -233.496,157.269 -269.52,181.512 -10.363,6.968 -24.019,-1.661 -22.168,-14.012 11.11,-73.859 47.973,-256.988 147.742,-332.16 C -266.863,137.371 -69.5156,68.3906 -3.6875,46.6602"
         style="fill:#18322f;fill-opacity:1;fill-rule:nonzero;stroke:none"
         id="path188" /><path
         d="m -501.371,535.539 c 0.242,-0.359 157.973,-237.949 495.15225,-476.6679 2.25391,-1.6016 5.375,-1.0625 6.972656,1.1875 1.593754,2.25 1.062504,5.3711 -1.191406,6.9727 v 0 C -168.352,185.91 -291.563,304.5 -372.766,393.34 c -40.601,44.41 -70.699,81.39 -90.632,107.242 -9.965,12.93 -17.391,23.066 -22.317,29.969 -2.465,3.449 -4.301,6.09 -5.519,7.859 -1.219,1.781 -1.801,2.649 -1.805,2.66 -1.527,2.301 -4.629,2.918 -6.93,1.399 -2.301,-1.528 -2.929,-4.629 -1.402,-6.93"
         style="fill:#50a579;fill-opacity:1;fill-rule:nonzero;stroke:none"
         id="path190" /><path
         d="M 225.988,260.969 106.945,397.621 99.4063,391.051 218.449,254.398"
         style="fill:#18322f;fill-opacity:1;fill-rule:nonzero;stroke:none"
         id="path192" /><path
         d="m 106.195,376.52 c 10.395,-3.418 20.758,5.582 18.598,16.289 -10.895,54.011 -56.1914,192.402 -242.148,317.683 -154.786,104.297 -233.497,157.27 -269.512,181.508 -10.367,6.969 -24.024,-1.66 -22.168,-14 11.105,-73.871 47.969,-257 147.738,-332.168 104.32,-78.59 301.6642,-147.59 367.492,-169.312"
         style="fill:#18322f;fill-opacity:1;fill-rule:nonzero;stroke:none"
         id="path194" /><path
         d="m -391.488,865.398 c 0.242,-0.359 157.976,-237.957 495.152,-476.679 2.254,-1.59 5.375,-1.059 6.973,1.191 1.593,2.262 1.062,5.379 -1.192,6.969 -167.9138,118.883 -291.121,237.48 -372.324,326.312 -40.601,44.418 -70.703,81.399 -90.637,107.25 -9.964,12.93 -17.39,23.071 -22.316,29.969 -2.465,3.461 -4.305,6.102 -5.52,7.871 -1.218,1.77 -1.8,2.649 -1.804,2.649 -1.528,2.3 -4.629,2.929 -6.93,1.402 -2.301,-1.531 -2.93,-4.633 -1.402,-6.934"
         style="fill:#50a579;fill-opacity:1;fill-rule:nonzero;stroke:none"
         id="path196" /><path
         d="M 296.512,554.141 148.055,729.16 140.426,722.691 288.883,547.672"
         style="fill:#18322f;fill-opacity:1;fill-rule:nonzero;stroke:none"
         id="path198" /><path
         d="m 145.398,707.898 c 9.981,-4.476 21.223,3.403 20.184,14.282 -5.242,54.832 -35.957,197.172 -207.9297,341 -143.1483,119.74 -215.9453,180.57 -249.2573,208.4 -9.59,8.01 -24.067,0.83 -23.5,-11.64 3.394,-74.62 21.078,-260.569 112.531,-345.651 95.609,-88.969 284.7498,-177.98 347.972,-206.391"
         style="fill:#18322f;fill-opacity:1;fill-rule:nonzero;stroke:none"
         id="path200" /><path
         d="m -298.953,1245.59 c 0.203,-0.38 132.469,-252.988 443.101,-525.289 2.075,-1.821 5.235,-1.61 7.055,0.469 1.82,2.07 1.613,5.23 -0.465,7.05 -154.69113,135.602 -264.953,266.289 -336.511,363.04 -35.782,48.38 -61.887,88.27 -79.036,116.04 -8.574,13.89 -14.906,24.74 -19.089,32.11 -2.094,3.69 -3.649,6.51 -4.676,8.39 -1.031,1.89 -1.52,2.83 -1.52,2.83 -1.281,2.45 -4.301,3.39 -6.75,2.11 -2.445,-1.28 -3.39,-4.3 -2.109,-6.75"
         style="fill:#50a579;fill-opacity:1;fill-rule:nonzero;stroke:none"
         id="path202" /><path
         d="m 381.223,924.27 -61.34,171.49 -9.418,-3.37 61.344,-171.492"
         style="fill:#18322f;fill-opacity:1;fill-rule:nonzero;stroke:none"
         id="path204" /><path
         d="m 309.152,1073.89 c 9.106,-8.94 24.59,-4.85 27.852,7.48 16.43,62.1 40.355,230.16 -89.629,456.85 -108.191,188.69 -163.2383,284.59 -188.4336,328.46 -7.25,12.63 -25.9844,10.61 -30.4023,-3.25 -26.45316,-83 -82.2618,-293.54 -16.6133,-423.48 68.6328,-135.86 239.5512,-309.5 297.2262,-366.06"
         style="fill:#18322f;fill-opacity:1;fill-rule:nonzero;stroke:none"
         id="path206" /><path
         d="m 41.2266,1841.33 c 0.0586,-0.42 42.625,-330 272.3004,-752.98 1.321,-2.43 4.356,-3.33 6.782,-2.01 2.425,1.32 3.324,4.35 2.007,6.78 -114.445,210.76 -182.253,398.23 -221.445,532.97 -19.5937,67.37 -32.0312,121.55 -39.5702,158.87 -3.7695,18.66 -6.3125,33.1 -7.9102,42.86 -0.8008,4.88 -1.3633,8.59 -1.7265,11.08 -0.3633,2.48 -0.5196,3.71 -0.5196,3.71 -0.3554,2.74 -2.8632,4.68 -5.6015,4.32 -2.7383,-0.35 -4.6719,-2.86 -4.3164,-5.6"
         style="fill:#50a579;fill-opacity:1;fill-rule:nonzero;stroke:none"
         id="path208" /><path
         d="m 7353.13,-61.0117 75.71,121.1523 -8.48,5.3008 -75.71,-121.1523"
         style="fill:#18322f;fill-opacity:1;fill-rule:nonzero;stroke:none"
         id="path210" /><path
         d="m 7423.6,47.0898 c -8.68,-3.9179 -18.48,2.9297 -17.58,12.4102 4.54,47.75 31.2,171.719 180.78,297.199 124.52,104.442 187.83,157.512 216.8,181.793 8.34,6.977 20.95,0.75 20.46,-10.113 C 7821.14,463.41 7805.84,301.469 7726.3,227.27 7643.14,149.68 7478.6,71.9102 7423.6,47.0898"
         style="fill:#b1c341;fill-opacity:1;fill-rule:nonzero;stroke:none"
         id="path212" /><path
         d="m 7801.73,520.199 c 0,-0.008 -0.43,-0.808 -1.32,-2.461 -13.38,-24.629 -129.7,-231.129 -381.9,-452.8161 l 6.61,-7.5117 C 7695.37,294.98 7810.39,515.191 7810.59,515.57 l -8.86,4.629"
         style="fill:#18322f;fill-opacity:1;fill-rule:nonzero;stroke:none"
         id="path214" /><path
         d="m 7271.79,209.422 91.35,133.918 -8.26,5.64 -91.35,-133.929"
         style="fill:#18322f;fill-opacity:1;fill-rule:nonzero;stroke:none"
         id="path216" /><path
         d="m 7359.64,330.449 c -8.24,-4.808 -18.68,1 -18.76,10.52 -0.43,47.961 13.24,174 149.04,314.261 113.04,116.75 170.53,176.079 196.84,203.219 7.56,7.813 20.75,2.922 21.39,-7.929 3.83,-64.918 5.37,-227.551 -66.06,-309.579 C 7567.4,455.18 7411.77,360.82 7359.64,330.449"
         style="fill:#b1c341;fill-opacity:1;fill-rule:nonzero;stroke:none"
         id="path218" /><path
         d="m 7686.77,840.07 c 0,-0.011 -0.33,-0.851 -1.05,-2.582 -10.76,-25.879 -105.07,-243.277 -332.99,-489.847 l 7.35,-6.789 c 244.23,264.238 335.83,495.128 335.99,495.527 l -9.29,3.691"
         style="fill:#18322f;fill-opacity:1;fill-rule:nonzero;stroke:none"
         id="path220" /><path
         d="m 7200.36,437.922 32.79,152.848 -9.78,2.089 -32.78,-152.847"
         style="fill:#18322f;fill-opacity:1;fill-rule:nonzero;stroke:none"
         id="path222" /><path
         d="m 7234.29,577.289 c -6.06,-7.348 -17.88,-5.519 -21.26,3.371 -17.01,44.832 -47.84,167.77 31.02,346.289 65.64,148.611 99.04,224.131 114.34,258.691 4.4,9.95 18.46,9.92 22.82,-0.03 26.08,-59.57 83.88,-211.54 45.24,-313.18 C 7386.07,766.148 7272.7,623.82 7234.29,577.289"
         style="fill:#b1c341;fill-opacity:1;fill-rule:nonzero;stroke:none"
         id="path224" /><path
         d="m 7364.78,1168.41 c 0,-0.01 -0.09,-3.76 -0.51,-11.12 -2.99,-51.52 -22.5,-276.841 -142.42,-566.259 l 9.24,-3.832 c 137.68,332.313 143.68,580.541 143.69,580.971 l -10,0.24"
         style="fill:#18322f;fill-opacity:1;fill-rule:nonzero;stroke:none"
         id="path226" /><path
         d="m 7052.37,780.891 57.96,-85.789 355.42,-1139.293 9.55,2.972 -355.87,1140.711 -58.78,86.996 -8.28,-5.597"
         style="fill:#18322f;fill-opacity:1;fill-rule:nonzero;stroke:none"
         id="path228" /><path
         d="m 7070.38,776.281 c -0.05,-9.519 -10.36,-15.582 -18.61,-10.832 -41.57,23.922 -143.28,99.582 -195.14,287.591 -43.18,156.49 -65.09,236.05 -75.11,272.46 -2.88,10.48 8.04,19.35 17.72,14.4 57.92,-29.6 198.9,-110.67 233.3,-213.75 35.95,-107.76 38.16,-289.591 37.84,-349.869"
         style="fill:#b1c341;fill-opacity:1;fill-rule:nonzero;stroke:none"
         id="path230" /><path
         d="m 6797.39,1316.21 c 0,-0.01 0.56,-0.72 1.68,-2.22 16.85,-22.38 156.31,-213.75 252.98,-534.939 l 9.57,2.879 c -103.6,344.2 -256.08,540.08 -256.34,540.42 l -7.89,-6.14"
         style="fill:#18322f;fill-opacity:1;fill-rule:nonzero;stroke:none"
         id="path232" /><path
         d="m 7222.77,-57.3789 c 9.31,2 13.13,13.3281 6.79,20.4297 -31.96,35.73826 -126.92,119.6875 -321.7,131.8789 -162.15,10.1523 -244.58,15.2813 -282.3,17.6093 -10.85,0.66 -17.3,-11.828 -10.46,-20.2773 40.85,-50.5703 149.17,-171.8398 257.19,-184.3515 112.93,-13.0702 291.49,22.0312 350.48,34.7109"
         style="fill:#b1c341;fill-opacity:1;fill-rule:nonzero;stroke:none"
         id="path234" /><path
         d="m 6633.54,89.9414 c 0.38,-0.1797 223.51,-109.1406 581.9,-139.9102 l 0.85,9.9571 c -178.36,15.3125 -323.05,50.0937 -423.1,81.0234 -50.02,15.4571 -88.89,29.9688 -115.22,40.5899 -13.17,5.3086 -23.21,9.6601 -29.94,12.6679 -3.36,1.5 -5.9,2.6719 -7.59,3.461 -1.7,0.8008 -2.51,1.1992 -2.52,1.1992 l -4.38,-8.9883"
         style="fill:#18322f;fill-opacity:1;fill-rule:nonzero;stroke:none"
         id="path236" /><path
         d="m 7287.66,160.398 -188.54,66.043 -3.3,-9.441 188.53,-66.039"
         style="fill:#18322f;fill-opacity:1;fill-rule:nonzero;stroke:none"
         id="path238" /><path
         d="m 7106.28,208.691 c 9.47,1.028 14.44,11.911 8.86,19.61 -28.07,38.871 -113.81,132.211 -306.28,164.469 -160.2,26.871 -241.65,40.492 -278.91,46.71 -10.73,1.801 -18.44,-9.968 -12.52,-19.082 35.4,-54.527 130.57,-186.367 236.7,-209.976 110.96,-24.692 292.17,-8.231 352.15,-1.731"
         style="fill:#b1c341;fill-opacity:1;fill-rule:nonzero;stroke:none"
         id="path240" /><path
         d="m 6535.52,416.191 c 0.37,-0.23 211,-131.699 564.24,-199.371 l 1.88,9.821 c -175.8,33.679 -316.1,83.238 -412.4,124.351 -48.15,20.559 -85.3,39.008 -110.39,52.297 -12.55,6.652 -22.08,12.012 -28.46,15.699 -3.19,1.844 -5.6,3.274 -7.2,4.231 -1.6,0.972 -2.37,1.453 -2.37,1.453 l -5.3,-8.481"
         style="fill:#18322f;fill-opacity:1;fill-rule:nonzero;stroke:none"
         id="path242" /><path
         d="m 7188.48,475.492 -121.57,101.75 -6.42,-7.672 121.57,-101.738"
         style="fill:#18322f;fill-opacity:1;fill-rule:nonzero;stroke:none"
         id="path244" /><path
         d="m 7068.06,555.602 c 10.78,-2.704 20.61,7.187 17.63,17.878 -15.01,53.852 -71.06,190.579 -268.48,303.551 -164.32,94.028 -247.88,141.799 -286.12,163.639 -10.99,6.28 -24.18,-3.47 -21.4,-15.84 16.69,-73.951 67.5,-256.611 174.02,-325.271 111.36,-71.789 316.14,-126.879 384.35,-143.957"
         style="fill:#b1c341;fill-opacity:1;fill-rule:nonzero;stroke:none"
         id="path246" /><path
         d="M 7067.23,572.109 C 6709.15,788.172 6532.4,1016.5 6532.4,1016.5"
         style="fill:#348538;fill-opacity:1;fill-rule:nonzero;stroke:none"
         id="path248" /><path
         d="m 3597.54,1008.27 c -48.45,71.02 -101.52,141.77 -174.26,187.59 -72.75,45.82 -169.74,62.24 -244.87,20.45 -82.35,-45.8 -117.86,-150.12 -108.53,-243.888 9.34,-93.762 55.01,-179.582 101.74,-261.402 215.22,-376.872 472.46,-729.6997 765.43,-1049.872 26.31,-28.75 54.01,-58.027 89.88,-73.269 35.86,-15.219 82.26,-12.649 108.18,16.422 34.99,39.211 -46.17,253.109 -58.84,308.2693 -29.71,129.3086 -67.44,256.7887 -112.84,381.4497 -91.74,252.019 -214.71,492.679 -365.89,714.25"
         style="fill:#2e7c36;fill-opacity:1;fill-rule:nonzero;stroke:none"
         id="path250" /><path
         d="m 3329.82,943.102 c 0,-0.02 2.86,-4.993 8.23,-14.372 40.33,-70.351 222.16,-388.058 399.26,-705.3 88.55,-158.6214 175.92,-317.1292 243.82,-444.528 33.95,-63.703 63.03,-119.621 84.94,-163.851 21.9,-44.192 36.69,-76.91 41.83,-93.41 45.82,-146.379 45.82,-146.379 45.82,-146.379 l 9.55,2.988 c -0.01,0 -0.01,0 -45.83,146.379 -5.96,18.98 -22.43,54.859 -46.9,103.891 -171.1,342.6284 -732.02,1319.5 -732.05,1319.562 l -8.67,-4.98"
         style="fill:#1e5328;fill-opacity:1;fill-rule:nonzero;stroke:none"
         id="path252" /><path
         d="m 2928.89,423.539 c -78.59,34.852 -160.97,67.031 -246.93,67.652 -85.98,0.629 -177.07,-36.5 -218.92,-111.601 -45.87,-82.309 -21.1,-189.692 36.22,-264.469 57.33,-74.789 141.37,-123.67178 224.19,-168.621 381.45,-206.949 785.98,-371.348 1203.66,-489.172 37.51,-10.566 76.48,-20.867 115,-14.93 38.49,5.954 76.58,32.582 83.31,70.954 9.08,51.757 -172.59,190.82 -212.41,231.019 -93.37,94.27 -192.6,182.7384 -296.86,264.80869 C 3405.41,175.059 3174.11,314.84 2928.89,423.539"
         style="fill:#3d913a;fill-opacity:1;fill-rule:nonzero;stroke:none"
         id="path254" /><path
         d="m 2735.66,227.109 c 0.01,0 5.06,-2.718 14.57,-7.867 71.34,-38.551 393.25,-212.82012 710.91,-389.191 158.82,-88.18 316.59,-176.891 441.41,-249.41 62.41,-36.262 116.59,-68.469 158.52,-94.532 41.89,-26.019 71.69,-46.039 84.76,-57.347 116.04,-100.301 116.04,-100.301 116.04,-100.301 l 6.54,7.57 c 0,0 0,0 -116.04,100.289 -15.07,13 -47.97,34.809 -94.6,63.602 C 3731.84,-298.98 2740.46,235.879 2740.41,235.91 l -4.75,-8.801"
         style="fill:#1e5328;fill-opacity:1;fill-rule:nonzero;stroke:none"
         id="path256" /><path
         d="m 4549.75,709.84 c 1.43,85.969 -1.07,174.371 -34.02,253.769 -32.96,79.411 -102.69,148.801 -188.15,158.051 -93.7,10.14 -182.9,-54.56 -229.4,-136.512 -46.5,-81.968 -58.74,-178.398 -67.81,-272.199 -41.79,-431.957 -35.39,-868.57 19.04,-1299.117 4.88,-38.66 10.61,-78.582 31.1,-111.711 20.5,-33.141 59.88,-57.809 97.83,-49.039 51.2,11.816 108.39,233.34 129.88,285.688 50.38,122.75 93.14,248.621 128.04,376.6284 70.54,258.7496 109.05,526.2496 113.49,794.4416"
         style="fill:#51bc50;fill-opacity:1;fill-rule:nonzero;stroke:none"
         id="path258" /><path
         d="m 4293.51,811.148 c -0.01,-0.058 -2.16,-22.878 -6.04,-63.218 -13.55,-141.188 -48.07,-496.168 -84.35,-831.7894 -18.14,-167.8086 -36.72,-330.7816 -53.34,-459.7386 -8.3,-64.48 -16.12,-120.461 -23.14,-164.261 -7,-43.762 -13.27,-75.512 -18.24,-90.852 -47.08,-145.98 -47.08,-145.98 -47.08,-145.98 l 9.52,-3.067 c 0,0 0,0 47.08,145.977 6.09,18.953 13.34,57.75 21.66,111.91 58.05,378.551 163.87,1500.023 163.88,1500.082 l -9.95,0.937"
         style="fill:#1e5328;fill-opacity:1;fill-rule:nonzero;stroke:none"
         id="path260" /><path
         d="m 4767.06,234.109 318.4,71.762 -363.85,102.359 c 0,0 -21.03,154.59 0,246.93 21.01,92.34 21.01,92.34 21.01,92.34 l 389.32,-111.52 -322.07,303.602 c 0,0 135.96,217.168 443.13,248.458 l 176.55,-522.29 34.01,551.01 c 0,0 281.96,30.84 490.25,-57.81 l -151.28,-462.399 309.86,399.499 c 0,0 335.47,-106.011 430.68,-399.499 l -252.34,-161.352 241.69,-90.09 c 0,0 -156.59,-198.449 -274.89,-270.968 l -225.78,120.23 70.58,-207.3788 c 0,0 -115.34,-50.1328 -264.44,-71.7109 -149.1,-21.57036 -131.54,-26.6016 -131.54,-26.6016 l -49.8,92.6992 -33.4,-94.0391 c 0,0 -440.7,-141.7108 -856.09,246.7692"
         style="fill:#348538;fill-opacity:1;fill-rule:nonzero;stroke:none"
         id="path262" /><path
         d="m 4719.47,593.891 813.11,-384.34 -516.25,908.289 -8.7,-4.94 500.63,-880.791 -784.51,370.821 -4.28,-9.039"
         style="fill:#1e5328;fill-opacity:1;fill-rule:nonzero;stroke:none"
         id="path264" /><path
         d="m 5635.27,1220 -121.3,-1010.949 857.67,705.847 -6.35,7.723 -838.42,-690.012 118.33,986.201 -9.93,1.19"
         style="fill:#1e5328;fill-opacity:1;fill-rule:nonzero;stroke:none"
         id="path266" /><path
         d="m 6214.77,1055.95 -696.98,-830.47 -619.05,-97.101 1.55,-9.879 622.75,97.68 699.39,833.34 -7.66,6.43"
         style="fill:#1e5328;fill-opacity:1;fill-rule:nonzero;stroke:none"
         id="path268" /><path
         d="m 5542.66,-22.2188 -17.26,243.3988 -9.97,-0.7 17.26,-243.4097"
         style="fill:#1e5328;fill-opacity:1;fill-rule:nonzero;stroke:none"
         id="path270" /><path
         d="m 4631.75,5004.29 c 0,0 -296.83,-93.32 -364.85,-320.95 0,0 98.14,-66.7 282.92,-33.59 184.78,33.11 184.78,33.11 184.78,33.11 0,0 -58.3,-112.51 -25.72,-244.29 0,0 131.23,63.89 179.19,132.66 47.95,68.77 47.95,68.77 47.95,68.77 0,0 59.52,-147.77 104.77,-249.6 0,0 173.81,158.43 246.67,255.44 72.85,97.02 72.85,97.02 72.85,97.02 0,0 -60.21,-262 14.9,-422.43 0,0 152.25,118.29 199.39,199.64 47.15,81.36 47.15,81.36 47.15,81.36 0,0 -61.51,-26.91 66.69,-128.57 128.21,-101.67 97.55,-47 97.55,-47 0,0 108.42,72.32 104.95,145.37 -3.48,73.06 0,223.61 0,223.61 0,0 46.02,-120.41 160.55,-274.77 114.53,-154.36 131.68,-162.71 131.68,-162.71 0,0 221.87,222.64 228.79,346.93 3.16,56.82 4.88,87.66 5.82,104.41 1.1,19.87 1.1,19.87 1.1,19.87 0,0 148.93,-262.35 258.22,-308.5 109.28,-46.14 109.28,-46.14 109.28,-46.14 0,0 51.43,117 102.87,175.82 51.42,58.82 51.42,58.82 51.42,58.82 0,0 -46.54,-265.21 4.05,-388.14 0,0 179.16,53.86 288.45,143.86 109.29,90 225,168.06 334.29,440.81 109.29,272.76 109.29,272.76 109.29,272.76 l -3045,-173.57"
         style="fill:#449f45;fill-opacity:1;fill-rule:nonzero;stroke:none"
         id="path272" /><path
         d="m -553.844,4880.89 c 0,0 -268.086,-157.92 -282.957,-395.03 0,0 110.664,-42.82 283.196,31.16 172.535,73.97 172.535,73.97 172.535,73.97 0,0 -31.399,-122.77 30.105,-243.78 0,0 113.414,91.87 144.606,169.69 31.191,77.82 31.191,77.82 31.191,77.82 0,0 91.3516,-130.52 158.4141,-219.51 0,0 133.5469,193.59 182.6209,304.55 49.071,110.96 49.071,110.96 49.071,110.96 0,0 0.503,-268.83 109.886,-408.16 0,0 121.61,149.61 149.168,239.51 27.559,89.9 27.559,89.9 27.559,89.9 0,0 -53.844,-40.1 94.008,-110.19 147.847,-70.1 105.644,-23.77 105.644,-23.77 0,0 89.293,94.94 69.406,165.32 -19.882,70.38 -50.484,217.84 -50.484,217.84 0,0 72.016,-106.91 218.445,-231.42 146.43,-124.52 165.02,-128.8 165.02,-128.8 0,0 165.86,267 144.55,389.64 -9.75,56.07 -15.04,86.5 -17.91,103.02 -3.41,19.62 -3.41,19.62 -3.41,19.62 0,0 204.32,-221.96 321.2,-242.23 116.88,-20.28 116.88,-20.28 116.88,-20.28 0,0 23.69,125.59 60.51,194.5 36.82,68.92 36.82,68.92 36.82,68.92 0,0 14.54,-268.87 91.58,-377.21 0,0 162.38,92.92 248.52,205.27 86.14,112.35 181.25,214.52 226.12,504.91 44.89,290.39 44.89,290.39 44.89,290.39 L -553.844,4880.89"
         style="fill:#449f45;fill-opacity:1;fill-rule:nonzero;stroke:none"
         id="path274" /><path
         d="m 1195.55,5176.06 c 142.22,-164.35 297.01,-318.26 460.97,-460.49 163.74,-142.53 337.16,-273.68 520.7,-387.8 91.81,-56.94 186.4,-109.18 283.65,-155.31 48.51,-23.3 97.72,-45.05 147.66,-64.79 49.81,-20.07 100.37,-38.1 151.5,-54.06 204.16,-64.05 418.73,-96.09 630.55,-78.29 52.84,4.73 105.42,11.94 157.42,22.24 26.16,5.33 52.48,11.7 78.75,17.32 l 39.42,8.68 39.09,10.13 c 104.63,25.55 207.25,58.95 308.82,94.95 l 75.8,28.21 75.05,30.2 c 25.15,9.78 49.83,20.66 74.53,31.54 24.63,11.02 49.66,21.15 73.93,33 98.32,44.68 193.88,95.3 288.49,147.59 94.57,52.43 187,108.86 277.29,168.61 90.5,59.45 179.21,121.78 265.58,187.29 86.5,65.35 171.11,133.35 253.25,204.29 41.06,35.47 81.61,71.56 121.37,108.5 39.77,36.81 79.25,74.49 116.52,113.22 l 21.73,-19.32 c -72.14,-83.48 -149.54,-160.72 -229.29,-236.1 -80.14,-74.81 -162.94,-146.82 -248.37,-215.69 -171.08,-137.39 -351.67,-263.58 -542.05,-373.89 -190.2,-110.46 -389.54,-206.22 -596.8,-281.91 -103.85,-37.03 -208.89,-71.4 -316.16,-97.83 l -40.07,-10.44 -40.43,-9 c -27.03,-5.93 -53.8,-12.13 -81.09,-17.52 -55.07,-10.54 -110.7,-17.81 -166.52,-22.43 -223.74,-17.18 -448.77,17.4 -659.1,87.45 -52.73,17.3 -104.71,36.68 -155.76,58.07 -51.19,21.09 -101.47,44.18 -150.92,68.79 -49.57,24.41 -98.01,50.93 -145.77,78.44 -47.85,27.4 -94.69,56.45 -140.85,86.41 -92.36,59.9 -181.55,124.4 -267.4,192.85 -85.96,68.31 -169.3,139.76 -249.21,214.77 -79.99,74.92 -157.21,152.65 -231.57,232.94 -74.42,80.27 -145.98,162.95 -212.52,250.12 l 11.81,9.26"
         style="fill:#18322f;fill-opacity:1;fill-rule:nonzero;stroke:none"
         id="path276" /><path
         d="m 3348.45,5412.04 c 142.22,-164.35 297.02,-318.27 460.97,-460.49 163.74,-142.53 337.17,-273.68 520.7,-387.81 91.81,-56.94 186.4,-109.17 283.65,-155.3 48.51,-23.3 97.72,-45.05 147.65,-64.8 49.82,-20.06 100.38,-38.09 151.51,-54.07 204.16,-64.03 418.74,-96.07 630.55,-78.28 52.85,4.73 105.42,11.95 157.43,22.25 26.16,5.33 52.47,11.69 78.74,17.31 l 39.42,8.69 39.09,10.12 c 104.63,25.55 207.26,58.96 308.82,94.96 l 75.8,28.21 75.05,30.2 c 25.15,9.78 49.83,20.66 74.53,31.54 24.63,11.01 49.66,21.15 73.93,33 98.32,44.67 193.89,95.29 288.49,147.58 94.57,52.43 187,108.87 277.3,168.62 90.49,59.45 179.2,121.77 265.57,187.29 86.5,65.35 171.11,133.34 253.25,204.29 41.06,35.47 81.62,71.55 121.37,108.5 39.77,36.8 79.25,74.48 116.52,113.21 l 21.73,-19.31 c -72.14,-83.48 -149.54,-160.72 -229.29,-236.11 -80.14,-74.8 -162.94,-146.82 -248.37,-215.68 -171.07,-137.4 -351.67,-263.58 -542.05,-373.9 -190.19,-110.46 -389.54,-206.22 -596.79,-281.9 -103.86,-37.04 -208.9,-71.41 -316.16,-97.83 l -40.08,-10.44 -40.44,-9 c -27.01,-5.94 -53.79,-12.14 -81.07,-17.52 -55.08,-10.55 -110.71,-17.82 -166.53,-22.43 -223.74,-17.19 -448.77,17.4 -659.1,87.45 -52.72,17.3 -104.71,36.67 -155.76,58.07 -51.19,21.09 -101.47,44.17 -150.93,68.79 -49.56,24.41 -98,50.93 -145.76,78.44 -47.85,27.4 -94.69,56.44 -140.86,86.4 -92.35,59.91 -181.53,124.41 -267.39,192.86 -85.96,68.3 -169.3,139.75 -249.2,214.77 -79.99,74.92 -157.21,152.64 -231.58,232.93 -74.42,80.28 -145.98,162.95 -212.52,250.12 l 11.81,9.27"
         style="fill:#449f45;fill-opacity:1;fill-rule:nonzero;stroke:none"
         id="path278" /><path
         d="m -2024.03,4629.45 c 154.48,-178.27 323.37,-344.49 503.13,-496.61 179.37,-152.54 370.18,-291.6 573.427,-408.21 101.664,-58.14 206.625,-110.08 314.325,-154.77 107.921,-44.03 218.8,-80.54 332.066,-105.39 28.246,-6.56 56.769,-11.56 85.191,-17.04 28.578,-4.47 57.114,-9.29 85.848,-12.4 57.3789,-6.72 115.0508,-11.11 172.711,-11.06 57.633,-0.07 115.273,2.38 172.437,9.18 57.211,6.9 113.637,16.78 170.18,30.12 226.07,52.02 441.653,146.81 643.355,264.18 202.34,117.1 390.77,258.31 569.13,411.01 44.47,38.37 88.33,77.48 131.51,117.37 43.09,39.99 85.5,80.74 127.55,121.88 83.96,82.46 165.15,167.83 244.17,255.22 158.47,174.28 307.65,358.13 444.54,549.65 l 24.36,-15.88 c -31.91,-50.58 -65.2,-99.53 -99.18,-148.34 -34.23,-48.54 -69.38,-96.42 -105.16,-143.83 C 2294.01,4779.7 2219.68,4686.91 2142.7,4596.29 1987.92,4415.8 1822.69,4243.66 1644.22,4085.36 1466.24,3926.68 1274.53,3782.13 1068.3,3659.71 861.898,3538.19 639.047,3440.17 403.309,3385.33 c -58.739,-13.56 -119.114,-23.74 -179.442,-30.58 -60.441,-6.79 -121.273,-9.01 -181.949,-8.52 -60.7188,0.36 -121.2618,5.34 -181.336,12.77 -30.094,3.48 -59.895,8.69 -89.75,13.57 -29.664,5.8 -59.363,11.48 -88.676,18.75 -235.25,55.93 -457.179,155.02 -661.785,278.46 -51.331,30.67 -101.611,63 -150.981,96.56 -49.37,33.56 -98,68.16 -145.42,104.29 -94.87,72.23 -186.47,148.48 -274.6,228.39 -87.82,80.28 -172.36,163.93 -253.6,250.58 -81.35,86.58 -159.39,176.02 -231.61,270.58 l 11.81,9.27"
         style="fill:#449f45;fill-opacity:1;fill-rule:nonzero;stroke:none"
         id="path280" /><path
         d="m 4284,3962.8 c -34.87,-57.16 -6.06,-148.49 60,-159.39 l -237.37,-95.26 c -60.02,-24.09 -65.48,-106.94 -9.13,-138.69 l 125.95,-70.98 c -87.2,-85.56 -122.36,-220.42 -88.02,-337.66 l 148.31,100.24 c -30.58,-71.45 41.09,-159.93 118.58,-153.94 77.49,5.99 134.8,91.19 121.39,167.74 l 108.7,-113.08 85.52,197.3 c 25.06,-56.45 106.33,-78.16 156.19,-41.72 49.86,36.44 53.86,120.47 7.68,161.48 54.71,-19.36 111.26,-37.48 169.28,-36.1 58.02,1.4 118.54,25.69 149.38,74.85 30.84,49.16 20.86,124.13 -29.45,153.07 71.67,4 143.35,8 215.02,12.01 35.33,1.97 72.77,4.51 95.31,42.44 15.41,25.94 17.09,58.21 5.4,86.03 -22.15,52.73 -80.02,78.72 -135.45,81.04 -49.65,2.09 -98.41,-11.92 -146.13,-25.79 l -1.88,161.87 c -1.02,86.53 -88.59,145.08 -168.94,112.94 l -172.07,-68.83 c 0.45,0.18 -60.9,37.05 -70.53,39.26 -26.65,6.1 -54.98,4.7 -80.66,-4.79 -51.71,-19.11 -69.41,-87.12 -115.7,-103.67 -50.74,-18.15 -113.63,31.37 -168.36,30.5 -54.96,-0.89 -113.2,-21.99 -143.02,-70.87"
         style="fill:#e1d9af;fill-opacity:1;fill-rule:nonzero;stroke:none"
         id="path282" /><path
         d="m 7107.23,4887.39 c -28.7,-11.63 -48.26,-39.84 -56.26,-69.76 -7.98,-29.92 -5.9,-61.58 -1.75,-92.26 5.35,-39.48 14.04,-78.5 25.94,-116.52 70.25,40.92 113.95,129.31 99.07,209.22 -7.23,38.84 -28.56,60.16 -67,69.32"
         style="fill:#b1c341;fill-opacity:1;fill-rule:nonzero;stroke:none"
         id="path284" /><path
         d="m 4848.64,4928.04 c -21.51,-1.23 -40.72,-15.42 -52.7,-33.33 -11.96,-17.92 -17.69,-39.24 -21.83,-60.38 -5.32,-27.2 -8.35,-54.85 -9.02,-82.56 55.42,11.21 104.02,59.63 112.13,115.6 3.95,27.2 -5.33,46.02 -28.58,60.67"
         style="fill:#b1c341;fill-opacity:1;fill-rule:nonzero;stroke:none"
         id="path286" /><path
         d="m 402.789,4883.05 c -15.902,-14.54 -21.836,-37.67 -19.809,-59.12 2.032,-21.45 11.051,-41.59 21.192,-60.6 13.047,-24.46 28.16,-47.81 45.133,-69.72 35.906,43.69 43.008,111.92 13.961,160.44 -14.118,23.59 -33.192,32.33 -60.477,29"
         style="fill:#256f33;fill-opacity:1;fill-rule:nonzero;stroke:none"
         id="path288" /><path
         d="m 6819.06,4180.51 c -34.04,-1.94 -64.44,-24.4 -83.39,-52.75 -18.94,-28.35 -28.01,-62.09 -34.56,-95.55 -8.43,-43.05 -13.21,-86.82 -14.29,-130.67 87.74,17.73 164.64,94.37 177.48,182.95 6.24,43.05 -8.42,72.85 -45.24,96.02"
         style="fill:#348538;fill-opacity:1;fill-rule:nonzero;stroke:none"
         id="path290" /><path
         d="m 2364.63,1334.49 c -10.66,-32.39 -0.88,-68.9 18.57,-96.91 19.44,-28.01 47.52,-48.79 76.27,-67.14 36.98,-23.6 75.95,-44.07 116.37,-61.12 15.61,88.13 -27.57,187.76 -105.3,232.13 -37.78,21.57 -70.87,18.81 -105.91,-6.96"
         style="fill:#348538;fill-opacity:1;fill-rule:nonzero;stroke:none"
         id="path292" /><path
         d="m 1557.67,3731.6 c -10.66,-32.4 -0.88,-68.9 18.57,-96.91 19.45,-28.01 47.53,-48.79 76.27,-67.14 36.98,-23.6 75.95,-44.07 116.37,-61.12 15.61,88.13 -27.56,187.75 -105.29,232.13 -37.78,21.57 -70.88,18.81 -105.92,-6.96"
         style="fill:#348538;fill-opacity:1;fill-rule:nonzero;stroke:none"
         id="path294" /></g></g></svg>
